<mxfile host="app.diagrams.net" modified="2024-03-27T10:14:14.978Z" agent="Mozilla/5.0 (Macintosh; Intel Mac OS X 10_15_7) AppleWebKit/537.36 (KHTML, like Gecko) Chrome/122.0.0.0 Safari/537.36" etag="Hwqh3CVArxIQZeIu2VHo" version="24.2.0" type="github">
  <diagram id="C5RBs43oDa-KdzZeNtuy" name="Page-1">
    <mxGraphModel dx="1234" dy="1229" grid="1" gridSize="10" guides="1" tooltips="1" connect="1" arrows="1" fold="1" page="1" pageScale="1" pageWidth="827" pageHeight="1169" math="0" shadow="0">
      <root>
        <mxCell id="WIyWlLk6GJQsqaUBKTNV-0" />
        <mxCell id="WIyWlLk6GJQsqaUBKTNV-1" parent="WIyWlLk6GJQsqaUBKTNV-0" />
        <mxCell id="gL4_xagSZykPecgQQLRG-4" style="edgeStyle=orthogonalEdgeStyle;rounded=0;orthogonalLoop=1;jettySize=auto;html=1;" edge="1" parent="WIyWlLk6GJQsqaUBKTNV-1" source="gL4_xagSZykPecgQQLRG-1" target="gL4_xagSZykPecgQQLRG-3">
          <mxGeometry relative="1" as="geometry" />
        </mxCell>
        <mxCell id="gL4_xagSZykPecgQQLRG-1" value="User" style="shape=umlActor;verticalLabelPosition=bottom;verticalAlign=top;html=1;outlineConnect=0;" vertex="1" parent="WIyWlLk6GJQsqaUBKTNV-1">
          <mxGeometry x="50" y="20" width="30" height="60" as="geometry" />
        </mxCell>
        <mxCell id="gL4_xagSZykPecgQQLRG-5" style="edgeStyle=orthogonalEdgeStyle;rounded=0;orthogonalLoop=1;jettySize=auto;html=1;entryX=0;entryY=0.5;entryDx=0;entryDy=0;" edge="1" parent="WIyWlLk6GJQsqaUBKTNV-1" source="gL4_xagSZykPecgQQLRG-2" target="gL4_xagSZykPecgQQLRG-3">
          <mxGeometry relative="1" as="geometry" />
        </mxCell>
        <mxCell id="gL4_xagSZykPecgQQLRG-2" value="Cronjob" style="shape=umlActor;verticalLabelPosition=bottom;verticalAlign=top;html=1;outlineConnect=0;" vertex="1" parent="WIyWlLk6GJQsqaUBKTNV-1">
          <mxGeometry x="50" y="130" width="30" height="60" as="geometry" />
        </mxCell>
        <mxCell id="gL4_xagSZykPecgQQLRG-9" style="edgeStyle=orthogonalEdgeStyle;rounded=0;orthogonalLoop=1;jettySize=auto;html=1;" edge="1" parent="WIyWlLk6GJQsqaUBKTNV-1" source="gL4_xagSZykPecgQQLRG-3" target="gL4_xagSZykPecgQQLRG-7">
          <mxGeometry relative="1" as="geometry" />
        </mxCell>
        <mxCell id="gL4_xagSZykPecgQQLRG-3" value="Import starten" style="rounded=1;whiteSpace=wrap;html=1;" vertex="1" parent="WIyWlLk6GJQsqaUBKTNV-1">
          <mxGeometry x="210" y="70" width="120" height="60" as="geometry" />
        </mxCell>
        <mxCell id="gL4_xagSZykPecgQQLRG-13" style="edgeStyle=orthogonalEdgeStyle;rounded=0;orthogonalLoop=1;jettySize=auto;html=1;" edge="1" parent="WIyWlLk6GJQsqaUBKTNV-1" source="gL4_xagSZykPecgQQLRG-7" target="gL4_xagSZykPecgQQLRG-11">
          <mxGeometry relative="1" as="geometry" />
        </mxCell>
        <mxCell id="gL4_xagSZykPecgQQLRG-7" value="Zammad: Alle Tickets holen" style="rounded=1;whiteSpace=wrap;html=1;" vertex="1" parent="WIyWlLk6GJQsqaUBKTNV-1">
          <mxGeometry x="414" y="70" width="120" height="60" as="geometry" />
        </mxCell>
        <mxCell id="gL4_xagSZykPecgQQLRG-14" style="edgeStyle=orthogonalEdgeStyle;rounded=0;orthogonalLoop=1;jettySize=auto;html=1;entryX=0.5;entryY=0;entryDx=0;entryDy=0;" edge="1" parent="WIyWlLk6GJQsqaUBKTNV-1" source="gL4_xagSZykPecgQQLRG-11" target="gL4_xagSZykPecgQQLRG-12">
          <mxGeometry relative="1" as="geometry" />
        </mxCell>
        <mxCell id="gL4_xagSZykPecgQQLRG-15" value="Ja" style="edgeLabel;html=1;align=center;verticalAlign=middle;resizable=0;points=[];" vertex="1" connectable="0" parent="gL4_xagSZykPecgQQLRG-14">
          <mxGeometry x="-0.24" y="1" relative="1" as="geometry">
            <mxPoint as="offset" />
          </mxGeometry>
        </mxCell>
        <mxCell id="gL4_xagSZykPecgQQLRG-11" value="Noch Tickets verfügbar?" style="rhombus;whiteSpace=wrap;html=1;" vertex="1" parent="WIyWlLk6GJQsqaUBKTNV-1">
          <mxGeometry x="627" y="50" width="110" height="100" as="geometry" />
        </mxCell>
        <mxCell id="gL4_xagSZykPecgQQLRG-17" style="edgeStyle=orthogonalEdgeStyle;rounded=0;orthogonalLoop=1;jettySize=auto;html=1;entryX=1;entryY=0.5;entryDx=0;entryDy=0;exitX=0;exitY=0.5;exitDx=0;exitDy=0;" edge="1" parent="WIyWlLk6GJQsqaUBKTNV-1" target="gL4_xagSZykPecgQQLRG-16">
          <mxGeometry relative="1" as="geometry">
            <mxPoint x="671" y="230" as="sourcePoint" />
          </mxGeometry>
        </mxCell>
        <mxCell id="gL4_xagSZykPecgQQLRG-12" value="Nächstes Ticket holen" style="rounded=1;whiteSpace=wrap;html=1;" vertex="1" parent="WIyWlLk6GJQsqaUBKTNV-1">
          <mxGeometry x="622" y="200" width="120" height="60" as="geometry" />
        </mxCell>
        <mxCell id="gL4_xagSZykPecgQQLRG-19" style="edgeStyle=orthogonalEdgeStyle;rounded=0;orthogonalLoop=1;jettySize=auto;html=1;entryX=1;entryY=0.5;entryDx=0;entryDy=0;" edge="1" parent="WIyWlLk6GJQsqaUBKTNV-1" source="gL4_xagSZykPecgQQLRG-16" target="gL4_xagSZykPecgQQLRG-18">
          <mxGeometry relative="1" as="geometry" />
        </mxCell>
        <mxCell id="gL4_xagSZykPecgQQLRG-16" value="ID in Issues suchen (Feld zammad_id)" style="rounded=1;whiteSpace=wrap;html=1;" vertex="1" parent="WIyWlLk6GJQsqaUBKTNV-1">
          <mxGeometry x="460" y="200" width="120" height="60" as="geometry" />
        </mxCell>
        <mxCell id="gL4_xagSZykPecgQQLRG-21" style="edgeStyle=orthogonalEdgeStyle;rounded=0;orthogonalLoop=1;jettySize=auto;html=1;entryX=0.5;entryY=0;entryDx=0;entryDy=0;" edge="1" parent="WIyWlLk6GJQsqaUBKTNV-1" source="gL4_xagSZykPecgQQLRG-18" target="gL4_xagSZykPecgQQLRG-20">
          <mxGeometry relative="1" as="geometry" />
        </mxCell>
        <mxCell id="gL4_xagSZykPecgQQLRG-22" value="Nein" style="edgeLabel;html=1;align=center;verticalAlign=middle;resizable=0;points=[];" vertex="1" connectable="0" parent="gL4_xagSZykPecgQQLRG-21">
          <mxGeometry x="-0.4947" y="1" relative="1" as="geometry">
            <mxPoint as="offset" />
          </mxGeometry>
        </mxCell>
        <mxCell id="gL4_xagSZykPecgQQLRG-24" style="edgeStyle=orthogonalEdgeStyle;rounded=0;orthogonalLoop=1;jettySize=auto;html=1;entryX=0.5;entryY=0;entryDx=0;entryDy=0;" edge="1" parent="WIyWlLk6GJQsqaUBKTNV-1" source="gL4_xagSZykPecgQQLRG-18" target="gL4_xagSZykPecgQQLRG-23">
          <mxGeometry relative="1" as="geometry" />
        </mxCell>
        <mxCell id="gL4_xagSZykPecgQQLRG-25" value="Ja" style="edgeLabel;html=1;align=center;verticalAlign=middle;resizable=0;points=[];" vertex="1" connectable="0" parent="gL4_xagSZykPecgQQLRG-24">
          <mxGeometry x="-0.25" y="2" relative="1" as="geometry">
            <mxPoint as="offset" />
          </mxGeometry>
        </mxCell>
        <mxCell id="gL4_xagSZykPecgQQLRG-18" value="ID gefunden?" style="rhombus;whiteSpace=wrap;html=1;" vertex="1" parent="WIyWlLk6GJQsqaUBKTNV-1">
          <mxGeometry x="310" y="190" width="80" height="80" as="geometry" />
        </mxCell>
        <mxCell id="gL4_xagSZykPecgQQLRG-27" style="edgeStyle=orthogonalEdgeStyle;rounded=0;orthogonalLoop=1;jettySize=auto;html=1;entryX=0.5;entryY=0;entryDx=0;entryDy=0;" edge="1" parent="WIyWlLk6GJQsqaUBKTNV-1" source="gL4_xagSZykPecgQQLRG-20" target="gL4_xagSZykPecgQQLRG-26">
          <mxGeometry relative="1" as="geometry" />
        </mxCell>
        <mxCell id="gL4_xagSZykPecgQQLRG-20" value="Issue anlegen" style="rounded=1;whiteSpace=wrap;html=1;" vertex="1" parent="WIyWlLk6GJQsqaUBKTNV-1">
          <mxGeometry x="140" y="310" width="120" height="60" as="geometry" />
        </mxCell>
        <mxCell id="gL4_xagSZykPecgQQLRG-29" style="edgeStyle=orthogonalEdgeStyle;rounded=0;orthogonalLoop=1;jettySize=auto;html=1;entryX=0.5;entryY=0;entryDx=0;entryDy=0;" edge="1" parent="WIyWlLk6GJQsqaUBKTNV-1" source="gL4_xagSZykPecgQQLRG-23" target="gL4_xagSZykPecgQQLRG-28">
          <mxGeometry relative="1" as="geometry" />
        </mxCell>
        <mxCell id="gL4_xagSZykPecgQQLRG-23" value="Issue laden" style="rounded=1;whiteSpace=wrap;html=1;" vertex="1" parent="WIyWlLk6GJQsqaUBKTNV-1">
          <mxGeometry x="290" y="310" width="120" height="60" as="geometry" />
        </mxCell>
        <mxCell id="gL4_xagSZykPecgQQLRG-39" style="edgeStyle=orthogonalEdgeStyle;rounded=0;orthogonalLoop=1;jettySize=auto;html=1;entryX=0.5;entryY=0;entryDx=0;entryDy=0;" edge="1" parent="WIyWlLk6GJQsqaUBKTNV-1" source="gL4_xagSZykPecgQQLRG-26" target="gL4_xagSZykPecgQQLRG-38">
          <mxGeometry relative="1" as="geometry" />
        </mxCell>
        <mxCell id="gL4_xagSZykPecgQQLRG-26" value="Task anlegen" style="rounded=1;whiteSpace=wrap;html=1;" vertex="1" parent="WIyWlLk6GJQsqaUBKTNV-1">
          <mxGeometry x="140" y="400" width="120" height="60" as="geometry" />
        </mxCell>
        <mxCell id="gL4_xagSZykPecgQQLRG-32" style="edgeStyle=orthogonalEdgeStyle;rounded=0;orthogonalLoop=1;jettySize=auto;html=1;entryX=0.5;entryY=0;entryDx=0;entryDy=0;" edge="1" parent="WIyWlLk6GJQsqaUBKTNV-1" source="gL4_xagSZykPecgQQLRG-28" target="gL4_xagSZykPecgQQLRG-40">
          <mxGeometry relative="1" as="geometry" />
        </mxCell>
        <mxCell id="gL4_xagSZykPecgQQLRG-28" value="Task laden" style="rounded=1;whiteSpace=wrap;html=1;" vertex="1" parent="WIyWlLk6GJQsqaUBKTNV-1">
          <mxGeometry x="290" y="400" width="120" height="60" as="geometry" />
        </mxCell>
        <mxCell id="gL4_xagSZykPecgQQLRG-34" style="edgeStyle=orthogonalEdgeStyle;rounded=0;orthogonalLoop=1;jettySize=auto;html=1;entryX=0.5;entryY=0;entryDx=0;entryDy=0;" edge="1" parent="WIyWlLk6GJQsqaUBKTNV-1" source="gL4_xagSZykPecgQQLRG-31" target="gL4_xagSZykPecgQQLRG-33">
          <mxGeometry relative="1" as="geometry" />
        </mxCell>
        <mxCell id="gL4_xagSZykPecgQQLRG-35" value="Ja" style="edgeLabel;html=1;align=center;verticalAlign=middle;resizable=0;points=[];" vertex="1" connectable="0" parent="gL4_xagSZykPecgQQLRG-34">
          <mxGeometry x="0.1111" y="1" relative="1" as="geometry">
            <mxPoint as="offset" />
          </mxGeometry>
        </mxCell>
        <mxCell id="gL4_xagSZykPecgQQLRG-31" value="Zammad Ticket aktueller?" style="rhombus;whiteSpace=wrap;html=1;" vertex="1" parent="WIyWlLk6GJQsqaUBKTNV-1">
          <mxGeometry x="305" y="590" width="90" height="85" as="geometry" />
        </mxCell>
        <mxCell id="gL4_xagSZykPecgQQLRG-33" value="Issue, Task &amp;amp; Timesheet aktualisieren" style="rounded=1;whiteSpace=wrap;html=1;" vertex="1" parent="WIyWlLk6GJQsqaUBKTNV-1">
          <mxGeometry x="290" y="716" width="120" height="60" as="geometry" />
        </mxCell>
        <mxCell id="gL4_xagSZykPecgQQLRG-37" style="edgeStyle=orthogonalEdgeStyle;rounded=0;orthogonalLoop=1;jettySize=auto;html=1;entryX=0;entryY=0.5;entryDx=0;entryDy=0;" edge="1" parent="WIyWlLk6GJQsqaUBKTNV-1" source="gL4_xagSZykPecgQQLRG-36" target="gL4_xagSZykPecgQQLRG-3">
          <mxGeometry relative="1" as="geometry" />
        </mxCell>
        <mxCell id="gL4_xagSZykPecgQQLRG-36" value="Webhook" style="shape=umlActor;verticalLabelPosition=bottom;verticalAlign=top;html=1;outlineConnect=0;" vertex="1" parent="WIyWlLk6GJQsqaUBKTNV-1">
          <mxGeometry x="50" y="233" width="30" height="60" as="geometry" />
        </mxCell>
        <mxCell id="gL4_xagSZykPecgQQLRG-38" value="Timesheet anlegen" style="rounded=1;whiteSpace=wrap;html=1;" vertex="1" parent="WIyWlLk6GJQsqaUBKTNV-1">
          <mxGeometry x="140" y="494" width="120" height="60" as="geometry" />
        </mxCell>
        <mxCell id="gL4_xagSZykPecgQQLRG-41" style="edgeStyle=orthogonalEdgeStyle;rounded=0;orthogonalLoop=1;jettySize=auto;html=1;entryX=0.5;entryY=0;entryDx=0;entryDy=0;" edge="1" parent="WIyWlLk6GJQsqaUBKTNV-1" source="gL4_xagSZykPecgQQLRG-40" target="gL4_xagSZykPecgQQLRG-31">
          <mxGeometry relative="1" as="geometry" />
        </mxCell>
        <mxCell id="gL4_xagSZykPecgQQLRG-40" value="Timesheet laden" style="rounded=1;whiteSpace=wrap;html=1;" vertex="1" parent="WIyWlLk6GJQsqaUBKTNV-1">
          <mxGeometry x="290" y="494" width="120" height="60" as="geometry" />
        </mxCell>
      </root>
    </mxGraphModel>
  </diagram>
</mxfile>
